<svg width="31" height="30" viewBox="0 0 31 30" fill="none" xmlns="http://www.w3.org/2000/svg">
<g clip-path="url(#clip0)">
<path d="M18.3036 29.8047C18.1794 29.8251 18.0548 29.8438 17.9297 29.861C18.0548 29.8438 18.1794 29.8251 18.3036 29.8047Z" fill="black"/>
<path d="M18.6019 29.7534C18.5426 29.7644 18.4832 29.7745 18.4238 29.7848C18.4832 29.7745 18.5426 29.7644 18.6019 29.7534Z" fill="black"/>
<path d="M17.5965 29.9028C17.4512 29.9193 17.3049 29.934 17.1582 29.9463C17.3049 29.934 17.4512 29.9193 17.5965 29.9028Z" fill="black"/>
<path d="M17.883 29.8677C17.8132 29.8771 17.7429 29.8858 17.6729 29.894C17.7429 29.8858 17.8132 29.8771 17.883 29.8677Z" fill="black"/>
<path d="M19.009 29.6724C18.9563 29.6836 18.9035 29.6948 18.8506 29.7056C18.9035 29.6948 18.9563 29.6836 19.009 29.6724Z" fill="black"/>
<path d="M20.0154 29.4209C19.9728 29.433 19.9303 29.4445 19.8877 29.4564C19.9303 29.4445 19.9728 29.433 20.0154 29.4209Z" fill="black"/>
<path d="M19.7114 29.5044C19.6652 29.5165 19.6187 29.5289 19.5723 29.5406C19.6187 29.5289 19.6652 29.5168 19.7114 29.5044Z" fill="black"/>
<path d="M19.3129 29.6045C19.2639 29.6159 19.2145 29.6267 19.165 29.6377C19.2145 29.6267 19.2639 29.6159 19.3129 29.6045Z" fill="black"/>
<path d="M17.1536 29.9468C17.0751 29.9534 16.9967 29.9594 16.918 29.9646C16.9967 29.9594 17.0751 29.9534 17.1536 29.9468Z" fill="black"/>
<path d="M30.8066 15C30.8066 6.717 24.1316 0 15.9004 0C7.66915 0 0.994141 6.717 0.994141 15C0.994141 23.283 7.66915 30 15.9004 30C15.988 30 16.0751 29.9982 16.1624 29.9966V18.3197H12.9599V14.564H16.1624V11.8002C16.1624 8.59497 18.1069 6.85043 20.9482 6.85043C22.3088 6.85043 23.4784 6.95251 23.8193 6.99806V10.348H21.8601C20.3143 10.348 20.015 11.0873 20.015 12.1719V14.564H23.7111L23.2293 18.3197H20.015V29.4205C26.2456 27.6231 30.8066 21.8468 30.8066 15Z" fill="#E2AB3F"/>
<path d="M16.8852 29.9668C16.73 29.9769 16.5742 29.9849 16.418 29.9901C16.5742 29.9849 16.73 29.9769 16.8852 29.9668Z" fill="black"/>
<path d="M16.4106 29.9902C16.3282 29.993 16.2457 29.995 16.1631 29.9964C16.2457 29.995 16.3282 29.993 16.4106 29.9902Z" fill="black"/>
</g>
<defs>
<clipPath id="clip0">
<rect width="29.8125" height="30" fill="white" transform="translate(0.994141)"/>
</clipPath>
</defs>
</svg>
