<svg width="31" height="30" viewBox="0 0 31 30" fill="none" xmlns="http://www.w3.org/2000/svg">
<g clip-path="url(#clip0)">
<path d="M26.9289 3.58496H4.40146C2.39052 3.58496 0.755859 5.2299 0.755859 7.25349V22.747C0.755859 24.7706 2.39052 26.4155 4.40146 26.4155H26.9228C28.9337 26.4155 30.5684 24.7706 30.5684 22.747V7.2597C30.5745 5.23611 28.9399 3.58496 26.9289 3.58496ZM28.909 22.747C28.909 23.8457 28.0208 24.7395 26.9289 24.7395H4.40146C3.30963 24.7395 2.42136 23.8457 2.42136 22.747V7.2597C2.42136 6.161 3.30963 5.26715 4.40146 5.26715H26.9228C28.0146 5.26715 28.9029 6.161 28.9029 7.2597V22.747H28.909Z" fill="#E2AB3F"/>
<path d="M19.5579 14.8079L26.8491 8.22814C27.1884 7.91777 27.2192 7.39015 26.9108 7.04254C26.6023 6.70114 26.078 6.6701 25.7326 6.98047L15.6779 16.0618L13.7163 14.2989C13.7101 14.2927 13.704 14.2865 13.704 14.2803C13.6608 14.2368 13.6176 14.1996 13.5682 14.1623L5.58617 6.97426C5.24073 6.66389 4.71641 6.69493 4.40798 7.04254C4.09955 7.39015 4.1304 7.91777 4.47583 8.22814L11.8534 14.8638L4.50668 21.7849C4.17358 22.1015 4.15507 22.6291 4.46967 22.9705C4.63622 23.1443 4.85828 23.2375 5.08035 23.2375C5.28391 23.2375 5.48747 23.163 5.64785 23.014L13.1056 15.9935L15.1289 17.8122C15.2893 17.955 15.4867 18.0233 15.6841 18.0233C15.8814 18.0233 16.085 17.9488 16.2392 17.806L18.318 15.9314L25.7326 23.0202C25.893 23.1754 26.1027 23.2499 26.3063 23.2499C26.5283 23.2499 26.7442 23.163 26.9108 22.9892C27.2254 22.654 27.213 22.1201 26.8799 21.8036L19.5579 14.8079Z" fill="#E2AB3F"/>
</g>
<defs>
<clipPath id="clip0">
<rect width="29.8125" height="30" fill="white" transform="translate(0.755859)"/>
</clipPath>
</defs>
</svg>
