<svg width="31" height="30" viewBox="0 0 31 30" fill="none" xmlns="http://www.w3.org/2000/svg">
<g clip-path="url(#clip0)">
<path d="M24.149 18.584C23.5386 17.9445 22.8024 17.6026 22.0222 17.6026C21.2483 17.6026 20.5058 17.9382 19.8703 18.5777L17.882 20.5722C17.7184 20.4835 17.5548 20.4012 17.3975 20.3189C17.171 20.2049 16.9571 20.0973 16.7746 19.9833C14.9121 18.793 13.2195 17.2417 11.5962 15.2345C10.8096 14.2341 10.2811 13.392 9.89728 12.5372C10.4132 12.0624 10.8914 11.5685 11.3571 11.0936C11.5332 10.9163 11.7094 10.7327 11.8856 10.5554C13.2069 9.22576 13.2069 7.50353 11.8856 6.17388L10.1678 4.44532C9.97279 4.24904 9.77144 4.04642 9.58268 3.84381C9.20515 3.45124 8.80875 3.04601 8.39976 2.66611C7.78942 2.05827 7.05953 1.73535 6.29189 1.73535C5.52425 1.73535 4.78178 2.05827 4.15257 2.66611C4.14628 2.67244 4.14628 2.67244 4.13998 2.67878L2.00066 4.85055C1.19527 5.66101 0.73594 6.64876 0.635266 7.79479C0.484255 9.64365 1.02538 11.3659 1.44066 12.4929C2.45998 15.2599 3.98268 17.8242 6.25414 20.5722C9.01009 23.8837 12.326 26.4986 16.1139 28.3412C17.5611 29.0313 19.4928 29.8481 21.651 29.9874C21.7831 29.9938 21.9216 30.0001 22.0474 30.0001C23.5009 30.0001 24.7215 29.4746 25.678 28.4298C25.6842 28.4172 25.6968 28.4108 25.7031 28.3982C26.0303 27.9993 26.4078 27.6384 26.8042 27.2521C27.0748 26.9925 27.3517 26.7203 27.6222 26.4353C28.2451 25.7832 28.5723 25.0234 28.5723 24.2446C28.5723 23.4594 28.2388 22.706 27.6033 22.0728L24.149 18.584ZM26.4015 25.2513C26.3953 25.2513 26.3953 25.2576 26.4015 25.2513C26.1562 25.5172 25.9045 25.7578 25.6339 26.0238C25.2249 26.4163 24.8096 26.8279 24.4195 27.2901C23.784 27.9739 23.0353 28.2969 22.0537 28.2969C21.9593 28.2969 21.8586 28.2969 21.7642 28.2905C19.8955 28.1702 18.1589 27.4357 16.8564 26.8089C13.295 25.074 10.1678 22.611 7.5692 19.4895C5.42358 16.8871 3.98897 14.4811 3.03886 11.8977C2.45369 10.3211 2.23976 9.09279 2.33414 7.93409C2.39706 7.19328 2.68021 6.57911 3.20246 6.05358L5.34807 3.89446C5.65639 3.6032 5.98358 3.44491 6.30448 3.44491C6.70088 3.44491 7.02178 3.68552 7.22313 3.88813C7.22942 3.89446 7.23571 3.90079 7.242 3.90713C7.62582 4.26803 7.99077 4.6416 8.37459 5.0405C8.56964 5.24312 8.77099 5.44573 8.97234 5.65468L10.6901 7.38323C11.3571 8.05439 11.3571 8.6749 10.6901 9.34606C10.5076 9.52968 10.3314 9.7133 10.149 9.89059C9.62043 10.4351 9.11706 10.9417 8.56965 11.4355C8.55706 11.4482 8.54448 11.4545 8.53818 11.4672C7.99706 12.0117 8.09773 12.5436 8.21099 12.9045C8.21729 12.9235 8.22358 12.9425 8.22987 12.9615C8.67661 14.0505 9.30582 15.0763 10.2622 16.2983L10.2685 16.3046C12.0051 18.4574 13.8362 20.1353 15.8559 21.4206C16.1139 21.5852 16.3782 21.7182 16.6299 21.8448C16.8564 21.9588 17.0703 22.0665 17.2528 22.1804C17.278 22.1931 17.3031 22.2121 17.3283 22.2248C17.5422 22.3324 17.7436 22.383 17.9512 22.383C18.4735 22.383 18.8007 22.0538 18.9076 21.9462L21.0595 19.7807C21.2735 19.5654 21.6132 19.3058 22.0096 19.3058C22.3998 19.3058 22.7206 19.5528 22.9157 19.768C22.922 19.7744 22.922 19.7744 22.9283 19.7807L26.3953 23.2695C27.0433 23.9153 27.0433 24.5801 26.4015 25.2513Z" fill="#E2AB3F"/>
<path d="M16.6992 7.13611C18.3477 7.4147 19.8453 8.19983 21.0408 9.40286C22.2363 10.6059 23.0102 12.1128 23.2933 13.7717C23.3626 14.1896 23.7212 14.4809 24.1302 14.4809C24.1805 14.4809 24.2246 14.4746 24.2749 14.4682C24.7405 14.3922 25.0488 13.949 24.9733 13.4805C24.6336 11.4733 23.6897 9.64346 22.2488 8.1935C20.808 6.74354 18.9895 5.79379 16.9949 5.45187C16.5293 5.37589 16.0952 5.68615 16.0134 6.14836C15.9316 6.61058 16.2336 7.06013 16.6992 7.13611Z" fill="#E2AB3F"/>
<path d="M30.3658 13.2336C29.8058 9.92848 28.258 6.92092 25.8795 4.52754C23.5011 2.13415 20.5123 0.576553 17.2279 0.0130316C16.7685 -0.0692806 16.3344 0.247305 16.2526 0.709519C16.1771 1.17807 16.4854 1.61495 16.951 1.69727C19.8831 2.19747 22.5573 3.59678 24.684 5.73056C26.8108 7.87068 28.195 10.5617 28.6921 13.5122C28.7613 13.9301 29.12 14.2214 29.529 14.2214C29.5793 14.2214 29.6234 14.215 29.6737 14.2087C30.133 14.1391 30.4476 13.6958 30.3658 13.2336Z" fill="#E2AB3F"/>
</g>
<defs>
<clipPath id="clip0">
<rect width="29.8125" height="30" fill="white" transform="translate(0.587891)"/>
</clipPath>
</defs>
</svg>
