<svg width="31" height="30" viewBox="0 0 31 30" fill="none" xmlns="http://www.w3.org/2000/svg">
<g clip-path="url(#clip0)">
<path d="M18.4719 15C18.4719 16.5857 17.1946 17.8711 15.6188 17.8711C14.043 17.8711 12.7656 16.5857 12.7656 15C12.7656 13.4143 14.043 12.1289 15.6188 12.1289C17.1946 12.1289 18.4719 13.4143 18.4719 15Z" fill="#E2AB3F"/>
<path d="M22.2914 9.92039C22.1543 9.5464 21.9354 9.20789 21.6511 8.93002C21.375 8.64392 21.0388 8.42374 20.6669 8.28572C20.3653 8.16785 19.9123 8.02754 19.0777 7.98932C18.175 7.94789 17.9043 7.93896 15.6189 7.93896C13.3332 7.93896 13.0626 7.94766 12.16 7.98909C11.3255 8.02754 10.8722 8.16785 10.5708 8.28572C10.199 8.42374 9.86255 8.64392 9.58665 8.93002C9.30234 9.20789 9.08353 9.54617 8.94615 9.92039C8.82901 10.2239 8.68959 10.6801 8.6516 11.5198C8.61043 12.428 8.60156 12.7004 8.60156 15.0004C8.60156 17.3002 8.61043 17.5726 8.6516 18.481C8.68959 19.3208 8.82901 19.7767 8.94615 20.0802C9.08353 20.4545 9.30211 20.7927 9.58643 21.0706C9.86255 21.3567 10.1987 21.5769 10.5706 21.7149C10.8722 21.833 11.3255 21.9733 12.16 22.0115C13.0626 22.053 13.333 22.0617 15.6187 22.0617C17.9045 22.0617 18.1752 22.053 19.0775 22.0115C19.912 21.9733 20.3653 21.833 20.6669 21.7149C21.4134 21.4251 22.0035 20.8314 22.2914 20.0802C22.4085 19.7767 22.548 19.3208 22.5862 18.481C22.6273 17.5726 22.636 17.3002 22.636 15.0004C22.636 12.7004 22.6273 12.428 22.5862 11.5198C22.5482 10.6801 22.4088 10.2239 22.2914 9.92039ZM15.6189 19.4231C13.1913 19.4231 11.2234 17.4431 11.2234 15.0002C11.2234 12.5573 13.1913 10.5773 15.6189 10.5773C18.0463 10.5773 20.0142 12.5573 20.0142 15.0002C20.0142 17.4431 18.0463 19.4231 15.6189 19.4231ZM20.1879 11.4361C19.6207 11.4361 19.1608 10.9733 19.1608 10.4024C19.1608 9.83159 19.6207 9.36879 20.1879 9.36879C20.7552 9.36879 21.2151 9.83159 21.2151 10.4024C21.2149 10.9733 20.7552 11.4361 20.1879 11.4361Z" fill="#E2AB3F"/>
<path d="M15.6191 0C7.3879 0 0.712891 6.717 0.712891 15C0.712891 23.283 7.3879 30 15.6191 30C23.8504 30 30.5254 23.283 30.5254 15C30.5254 6.717 23.8504 0 15.6191 0ZM24.127 18.5511C24.0856 19.468 23.9407 20.094 23.7291 20.6419C23.2845 21.7989 22.3756 22.7135 21.2258 23.161C20.6815 23.3739 20.0592 23.5194 19.1483 23.5613C18.2355 23.6032 17.9439 23.6133 15.6194 23.6133C13.2946 23.6133 13.0032 23.6032 12.0902 23.5613C11.1793 23.5194 10.557 23.3739 10.0127 23.161C9.44134 22.9447 8.92411 22.6057 8.4965 22.1674C8.06116 21.7374 7.72431 21.2167 7.50936 20.6419C7.29783 20.0942 7.15295 19.468 7.11155 18.5513C7.06947 17.6326 7.05969 17.3392 7.05969 15C7.05969 12.6608 7.06947 12.3674 7.11132 11.4489C7.15272 10.532 7.29738 9.90601 7.50891 9.35806C7.72385 8.78334 8.06093 8.26263 8.4965 7.83257C8.92388 7.39426 9.44134 7.05528 10.0125 6.83899C10.557 6.62613 11.1791 6.48056 12.0902 6.43867C13.003 6.39679 13.2946 6.38672 15.6191 6.38672C17.9437 6.38672 18.2353 6.39679 19.148 6.4389C20.0592 6.48056 20.6813 6.62613 21.2258 6.83876C21.7969 7.05505 22.3144 7.39426 22.742 7.83257C23.1773 8.26286 23.5144 8.78334 23.7291 9.35806C23.9409 9.90601 24.0856 10.532 24.1272 11.4489C24.1688 12.3674 24.1786 12.6608 24.1786 15C24.1786 17.3392 24.1688 17.6326 24.127 18.5511Z" fill="#E2AB3F"/>
</g>
<defs>
<clipPath id="clip0">
<rect width="29.8125" height="30" fill="white" transform="translate(0.712891)"/>
</clipPath>
</defs>
</svg>
