<svg width="31" height="30" viewBox="0 0 31 30" fill="none" xmlns="http://www.w3.org/2000/svg">
<g clip-path="url(#clip0)">
<path d="M24.2115 23.5839C23.6011 22.9444 22.8649 22.6025 22.0847 22.6025C21.3108 22.6025 20.5683 22.9381 19.9328 23.5776L17.9445 25.5721C17.7809 25.4835 17.6173 25.4011 17.46 25.3188C17.2335 25.2049 17.0196 25.0972 16.8371 24.9832C14.9746 23.7929 13.282 22.2416 11.6587 20.2345C10.8721 19.2341 10.3436 18.3919 9.95978 17.5372C10.4757 17.0623 10.9539 16.5684 11.4196 16.0935C11.5957 15.9162 11.7719 15.7326 11.9481 15.5553C13.2694 14.2257 13.2694 12.5035 11.9481 11.1738L10.2303 9.44525C10.0353 9.24896 9.83394 9.04635 9.64518 8.84373C9.26765 8.45117 8.87125 8.04594 8.46226 7.66604C7.85192 7.05819 7.12203 6.73528 6.35439 6.73528C5.58675 6.73528 4.84428 7.05819 4.21507 7.66604C4.20878 7.67237 4.20878 7.67237 4.20248 7.6787L2.06316 9.85047C1.25777 10.6609 0.79844 11.6487 0.697766 12.7947C0.546755 14.6436 1.08788 16.3658 1.50316 17.4928C2.52248 20.2598 4.04518 22.8241 6.31664 25.5721C9.07259 28.8836 12.3885 31.4986 16.1764 33.3411C17.6236 34.0313 19.5553 34.848 21.7135 34.9873C21.8456 34.9937 21.9841 35 22.1099 35C23.5634 35 24.784 34.4745 25.7405 33.4297C25.7467 33.4171 25.7593 33.4107 25.7656 33.3981C26.0928 32.9992 26.4703 32.6383 26.8667 32.252C27.1373 31.9924 27.4142 31.7202 27.6847 31.4353C28.3076 30.7831 28.6348 30.0233 28.6348 29.2445C28.6348 28.4594 28.3013 27.7059 27.6658 27.0727L24.2115 23.5839ZM26.464 30.2512C26.4578 30.2512 26.4578 30.2576 26.464 30.2512C26.2187 30.5172 25.967 30.7578 25.6964 31.0237C25.2874 31.4163 24.8721 31.8278 24.482 32.29C23.8465 32.9739 23.0978 33.2968 22.1162 33.2968C22.0218 33.2968 21.9211 33.2968 21.8267 33.2904C19.958 33.1701 18.2214 32.4357 16.9189 31.8088C13.3575 30.0739 10.2303 27.6109 7.6317 24.4894C5.48608 21.887 4.05147 19.481 3.10136 16.8977C2.51619 15.3211 2.30226 14.0927 2.39664 12.934C2.45956 12.1932 2.74271 11.579 3.26496 11.0535L5.41057 8.89439C5.71889 8.60313 6.04608 8.44484 6.36698 8.44484C6.76338 8.44484 7.08428 8.68544 7.28563 8.88806C7.29192 8.89439 7.29821 8.90072 7.3045 8.90705C7.68832 9.26796 8.05327 9.64153 8.43709 10.0404C8.63214 10.243 8.83349 10.4457 9.03484 10.6546L10.7526 12.3832C11.4196 13.0543 11.4196 13.6748 10.7526 14.346C10.5701 14.5296 10.3939 14.7132 10.2115 14.8905C9.68293 15.435 9.17956 15.9416 8.63215 16.4354C8.61956 16.4481 8.60698 16.4544 8.60068 16.4671C8.05956 17.0116 8.16023 17.5435 8.27349 17.9044C8.27979 17.9234 8.28608 17.9424 8.29237 17.9614C8.73911 19.0504 9.36832 20.0762 10.3247 21.2982L10.331 21.3045C12.0676 23.4573 13.8987 25.1352 15.9184 26.4205C16.1764 26.5852 16.4407 26.7181 16.6924 26.8448C16.9189 26.9587 17.1328 27.0664 17.3153 27.1804C17.3405 27.193 17.3656 27.212 17.3908 27.2247C17.6047 27.3323 17.8061 27.383 18.0137 27.383C18.536 27.383 18.8632 27.0537 18.9701 26.9461L21.122 24.7806C21.336 24.5654 21.6757 24.3058 22.0721 24.3058C22.4623 24.3058 22.7831 24.5527 22.9782 24.768C22.9845 24.7743 22.9845 24.7743 22.9908 24.7806L26.4578 28.2694C27.1058 28.9152 27.1058 29.5801 26.464 30.2512Z" fill="black"/>
<path d="M16.7617 12.1362C18.4102 12.4148 19.9078 13.1999 21.1033 14.403C22.2988 15.606 23.0727 17.1129 23.3558 18.7718C23.4251 19.1897 23.7837 19.481 24.1927 19.481C24.243 19.481 24.2871 19.4747 24.3374 19.4683C24.803 19.3923 25.1113 18.9491 25.0358 18.4806C24.6961 16.4734 23.7522 14.6436 22.3113 13.1936C20.8705 11.7436 19.052 10.7939 17.0574 10.452C16.5918 10.376 16.1577 10.6863 16.0759 11.1485C15.9941 11.6107 16.2961 12.0602 16.7617 12.1362Z" fill="black"/>
<path d="M30.4283 18.2337C29.8683 14.9285 28.3205 11.921 25.942 9.52757C23.5636 7.13418 20.5748 5.57658 17.2904 5.01306C16.831 4.93075 16.3969 5.24734 16.3151 5.70955C16.2396 6.1781 16.5479 6.61498 17.0135 6.6973C19.9456 7.1975 22.6198 8.59681 24.7465 10.7306C26.8733 12.8707 28.2575 15.5617 28.7546 18.5123C28.8238 18.9302 29.1825 19.2214 29.5915 19.2214C29.6418 19.2214 29.6859 19.2151 29.7362 19.2087C30.1955 19.1391 30.5101 18.6959 30.4283 18.2337Z" fill="black"/>
</g>
<defs>
<clipPath id="clip0">
<rect width="29.8125" height="30" fill="white" transform="translate(0.650391)"/>
</clipPath>
</defs>
</svg>
